<mxfile host="app.diagrams.net" agent="Mozilla/5.0 (Windows NT 10.0; Win64; x64) AppleWebKit/537.36 (KHTML, like Gecko) Chrome/130.0.0.0 Safari/537.36 Edg/130.0.0.0" version="24.8.0">
  <diagram name="Página-1" id="arePmuO6nhZJ6RPrvHvg">
    <mxGraphModel dx="2624" dy="1552" grid="0" gridSize="10" guides="1" tooltips="1" connect="1" arrows="1" fold="1" page="0" pageScale="1" pageWidth="827" pageHeight="1169" math="0" shadow="0">
      <root>
        <mxCell id="0" />
        <mxCell id="1" parent="0" />
        <mxCell id="jYHMpnctj6Xelzhskehh-27" style="edgeStyle=orthogonalEdgeStyle;rounded=0;orthogonalLoop=1;jettySize=auto;html=1;exitX=0.633;exitY=0.001;exitDx=0;exitDy=0;exitPerimeter=0;entryX=0.647;entryY=1.005;entryDx=0;entryDy=0;entryPerimeter=0;" edge="1" parent="1" source="jYHMpnctj6Xelzhskehh-3" target="jYHMpnctj6Xelzhskehh-2">
          <mxGeometry relative="1" as="geometry" />
        </mxCell>
        <mxCell id="jYHMpnctj6Xelzhskehh-3" value="Sistema HomeBroker" style="verticalAlign=top;align=left;spacingTop=8;spacingLeft=2;spacingRight=12;shape=cube;size=10;direction=south;fontStyle=5;html=1;whiteSpace=wrap;fillColor=#dae8fc;strokeColor=#6c8ebf;" vertex="1" parent="1">
          <mxGeometry x="-480" y="550" width="790" height="510" as="geometry" />
        </mxCell>
        <mxCell id="jYHMpnctj6Xelzhskehh-4" value="B3" style="verticalAlign=top;align=left;spacingTop=8;spacingLeft=2;spacingRight=12;shape=cube;size=10;direction=south;fontStyle=5;html=1;whiteSpace=wrap;fillColor=#f5f5f5;fontColor=#333333;strokeColor=#666666;" vertex="1" parent="1">
          <mxGeometry x="-480" y="1100" width="790" height="180" as="geometry" />
        </mxCell>
        <mxCell id="jYHMpnctj6Xelzhskehh-6" value="TCP/ 192.162.65.23:8080" style="edgeStyle=orthogonalEdgeStyle;rounded=0;orthogonalLoop=1;jettySize=auto;html=1;entryX=0.012;entryY=0.7;entryDx=0;entryDy=0;entryPerimeter=0;exitX=1.002;exitY=0.701;exitDx=0;exitDy=0;exitPerimeter=0;" edge="1" parent="1" source="jYHMpnctj6Xelzhskehh-3" target="jYHMpnctj6Xelzhskehh-4">
          <mxGeometry x="-0.1035" y="-86" relative="1" as="geometry">
            <mxPoint x="-86" y="-86" as="offset" />
          </mxGeometry>
        </mxCell>
        <mxCell id="jYHMpnctj6Xelzhskehh-2" value="Banco de Dados&lt;div&gt;&lt;br&gt;&lt;/div&gt;" style="verticalAlign=top;align=left;spacingTop=8;spacingLeft=2;spacingRight=12;shape=cube;size=10;direction=south;fontStyle=5;html=1;whiteSpace=wrap;fillColor=#d5e8d4;strokeColor=#82b366;" vertex="1" parent="1">
          <mxGeometry x="340" y="550" width="180" height="510" as="geometry" />
        </mxCell>
        <mxCell id="jYHMpnctj6Xelzhskehh-17" value="&lt;p style=&quot;margin:0px;margin-top:6px;text-align:center;&quot;&gt;&lt;b&gt;Ação&lt;/b&gt;&lt;/p&gt;" style="align=left;overflow=fill;html=1;dropTarget=0;whiteSpace=wrap;" vertex="1" parent="1">
          <mxGeometry x="60" y="690" width="180" height="90" as="geometry" />
        </mxCell>
        <mxCell id="jYHMpnctj6Xelzhskehh-18" value="" style="shape=component;jettyWidth=8;jettyHeight=4;" vertex="1" parent="jYHMpnctj6Xelzhskehh-17">
          <mxGeometry x="1" width="20" height="20" relative="1" as="geometry">
            <mxPoint x="-24" y="4" as="offset" />
          </mxGeometry>
        </mxCell>
        <mxCell id="jYHMpnctj6Xelzhskehh-31" style="edgeStyle=orthogonalEdgeStyle;rounded=0;orthogonalLoop=1;jettySize=auto;html=1;entryX=0.5;entryY=0;entryDx=0;entryDy=0;dashed=1;dashPattern=12 12;" edge="1" parent="1" source="jYHMpnctj6Xelzhskehh-20" target="jYHMpnctj6Xelzhskehh-28">
          <mxGeometry relative="1" as="geometry" />
        </mxCell>
        <mxCell id="jYHMpnctj6Xelzhskehh-32" style="edgeStyle=orthogonalEdgeStyle;rounded=0;orthogonalLoop=1;jettySize=auto;html=1;dashed=1;dashPattern=12 12;entryX=0.5;entryY=0;entryDx=0;entryDy=0;entryPerimeter=0;" edge="1" parent="1" source="jYHMpnctj6Xelzhskehh-20" target="jYHMpnctj6Xelzhskehh-24">
          <mxGeometry relative="1" as="geometry">
            <Array as="points">
              <mxPoint x="-320" y="600" />
              <mxPoint x="440" y="600" />
            </Array>
          </mxGeometry>
        </mxCell>
        <mxCell id="jYHMpnctj6Xelzhskehh-20" value="&lt;p style=&quot;margin:0px;margin-top:6px;text-align:center;&quot;&gt;&lt;b&gt;Conta&lt;/b&gt;&lt;/p&gt;" style="align=left;overflow=fill;html=1;dropTarget=0;whiteSpace=wrap;" vertex="1" parent="1">
          <mxGeometry x="-410" y="690" width="180" height="90" as="geometry" />
        </mxCell>
        <mxCell id="jYHMpnctj6Xelzhskehh-21" value="" style="shape=component;jettyWidth=8;jettyHeight=4;" vertex="1" parent="jYHMpnctj6Xelzhskehh-20">
          <mxGeometry x="1" width="20" height="20" relative="1" as="geometry">
            <mxPoint x="-24" y="4" as="offset" />
          </mxGeometry>
        </mxCell>
        <mxCell id="jYHMpnctj6Xelzhskehh-30" style="edgeStyle=orthogonalEdgeStyle;rounded=0;orthogonalLoop=1;jettySize=auto;html=1;exitX=0.5;exitY=1;exitDx=0;exitDy=0;dashed=1;dashPattern=12 12;" edge="1" parent="1" source="jYHMpnctj6Xelzhskehh-22" target="jYHMpnctj6Xelzhskehh-25">
          <mxGeometry relative="1" as="geometry">
            <Array as="points">
              <mxPoint x="-80" y="1090" />
              <mxPoint x="-80" y="1090" />
            </Array>
          </mxGeometry>
        </mxCell>
        <mxCell id="jYHMpnctj6Xelzhskehh-22" value="&lt;p style=&quot;margin:0px;margin-top:6px;text-align:center;&quot;&gt;&lt;b&gt;Carteira&lt;/b&gt;&lt;/p&gt;" style="align=left;overflow=fill;html=1;dropTarget=0;whiteSpace=wrap;" vertex="1" parent="1">
          <mxGeometry x="-170" y="910" width="180" height="90" as="geometry" />
        </mxCell>
        <mxCell id="jYHMpnctj6Xelzhskehh-23" value="" style="shape=component;jettyWidth=8;jettyHeight=4;" vertex="1" parent="jYHMpnctj6Xelzhskehh-22">
          <mxGeometry x="1" width="20" height="20" relative="1" as="geometry">
            <mxPoint x="-24" y="4" as="offset" />
          </mxGeometry>
        </mxCell>
        <mxCell id="jYHMpnctj6Xelzhskehh-24" value="DB" style="shape=cylinder3;whiteSpace=wrap;html=1;boundedLbl=1;backgroundOutline=1;size=15;" vertex="1" parent="1">
          <mxGeometry x="410" y="690" width="60" height="80" as="geometry" />
        </mxCell>
        <mxCell id="jYHMpnctj6Xelzhskehh-25" value="&lt;p style=&quot;margin:0px;margin-top:6px;text-align:center;&quot;&gt;&lt;b&gt;B3Aplicação&lt;/b&gt;&lt;/p&gt;" style="align=left;overflow=fill;html=1;dropTarget=0;whiteSpace=wrap;" vertex="1" parent="1">
          <mxGeometry x="-170" y="1145" width="180" height="90" as="geometry" />
        </mxCell>
        <mxCell id="jYHMpnctj6Xelzhskehh-26" value="" style="shape=component;jettyWidth=8;jettyHeight=4;" vertex="1" parent="jYHMpnctj6Xelzhskehh-25">
          <mxGeometry x="1" width="20" height="20" relative="1" as="geometry">
            <mxPoint x="-24" y="4" as="offset" />
          </mxGeometry>
        </mxCell>
        <mxCell id="jYHMpnctj6Xelzhskehh-28" value="&lt;p style=&quot;margin:0px;margin-top:6px;text-align:center;&quot;&gt;&lt;b&gt;Acessor&lt;/b&gt;&lt;/p&gt;" style="align=left;overflow=fill;html=1;dropTarget=0;whiteSpace=wrap;" vertex="1" parent="1">
          <mxGeometry x="-410" y="910" width="180" height="90" as="geometry" />
        </mxCell>
        <mxCell id="jYHMpnctj6Xelzhskehh-29" value="" style="shape=component;jettyWidth=8;jettyHeight=4;" vertex="1" parent="jYHMpnctj6Xelzhskehh-28">
          <mxGeometry x="1" width="20" height="20" relative="1" as="geometry">
            <mxPoint x="-24" y="4" as="offset" />
          </mxGeometry>
        </mxCell>
        <mxCell id="jYHMpnctj6Xelzhskehh-33" style="edgeStyle=orthogonalEdgeStyle;rounded=0;orthogonalLoop=1;jettySize=auto;html=1;entryX=0.998;entryY=0.381;entryDx=0;entryDy=0;entryPerimeter=0;dashed=1;dashPattern=12 12;" edge="1" parent="1" source="jYHMpnctj6Xelzhskehh-22" target="jYHMpnctj6Xelzhskehh-20">
          <mxGeometry relative="1" as="geometry">
            <Array as="points">
              <mxPoint x="-80" y="724" />
            </Array>
          </mxGeometry>
        </mxCell>
        <mxCell id="jYHMpnctj6Xelzhskehh-34" style="edgeStyle=orthogonalEdgeStyle;rounded=0;orthogonalLoop=1;jettySize=auto;html=1;entryX=0.411;entryY=0.001;entryDx=0;entryDy=0;entryPerimeter=0;dashed=1;dashPattern=12 12;" edge="1" parent="1" source="jYHMpnctj6Xelzhskehh-20" target="jYHMpnctj6Xelzhskehh-22">
          <mxGeometry relative="1" as="geometry" />
        </mxCell>
        <mxCell id="jYHMpnctj6Xelzhskehh-38" value="TCP/202.255.23.47:4135" style="edgeStyle=orthogonalEdgeStyle;rounded=0;orthogonalLoop=1;jettySize=auto;html=1;entryX=0;entryY=0.5;entryDx=0;entryDy=0;entryPerimeter=0;exitX=0.995;exitY=0.846;exitDx=0;exitDy=0;exitPerimeter=0;dashed=1;dashPattern=12 12;" edge="1" parent="1" target="jYHMpnctj6Xelzhskehh-24">
          <mxGeometry x="0.0058" y="-10" relative="1" as="geometry">
            <mxPoint x="239.0999999999999" y="736.14" as="sourcePoint" />
            <mxPoint x="420" y="700" as="targetPoint" />
            <Array as="points">
              <mxPoint x="239" y="730" />
            </Array>
            <mxPoint as="offset" />
          </mxGeometry>
        </mxCell>
        <mxCell id="jYHMpnctj6Xelzhskehh-39" style="edgeStyle=orthogonalEdgeStyle;rounded=0;orthogonalLoop=1;jettySize=auto;html=1;entryX=0;entryY=0.5;entryDx=0;entryDy=0;dashed=1;dashPattern=12 12;" edge="1" parent="1" source="jYHMpnctj6Xelzhskehh-22" target="jYHMpnctj6Xelzhskehh-17">
          <mxGeometry relative="1" as="geometry">
            <Array as="points">
              <mxPoint x="-50" y="735" />
            </Array>
          </mxGeometry>
        </mxCell>
      </root>
    </mxGraphModel>
  </diagram>
</mxfile>
